<svg width="68" height="56" viewBox="0 0 68 56" fill="none" xmlns="http://www.w3.org/2000/svg">
<path d="M46 25C48.2091 25 50.0327 23.1978 49.6808 21.0168C48.8489 15.8626 46.4166 11.0613 42.6777 7.32233C37.9893 2.63392 31.6304 5.00582e-07 25 0C18.3696 -5.00582e-07 12.0107 2.63392 7.32233 7.32233C3.58338 11.0613 1.15105 15.8626 0.319246 21.0168C-0.0327203 23.1977 1.79086 25 4 25L25 25H46Z" fill="#0C0A09"/>
<path d="M22 31C19.7909 31 17.9673 32.8023 18.3192 34.9832C19.1511 40.1374 21.5834 44.9387 25.3223 48.6777C30.0107 53.3661 36.3696 56 43 56C49.6304 56 55.9893 53.3661 60.6777 48.6777C64.4166 44.9387 66.8489 40.1374 67.6808 34.9832C68.0327 32.8023 66.2091 31 64 31L43 31L22 31Z" fill="#0C0A09"/>
</svg>
