<svg width="56" height="56" viewBox="0 0 56 56" fill="none" xmlns="http://www.w3.org/2000/svg">
<path d="M24.0983 3.27297C25.0376 -0.885252 30.9624 -0.885253 31.9017 3.27297L32.8912 7.65345C33.4999 10.3484 36.5925 11.6294 38.9286 10.1542L42.7257 7.75644C46.3302 5.4803 50.5197 9.6698 48.2436 13.2743L45.8458 17.0714C44.3706 19.4075 45.6516 22.5001 48.3466 23.1088L52.727 24.0983C56.8853 25.0376 56.8853 30.9624 52.727 31.9017L48.3466 32.8912C45.6516 33.4999 44.3706 36.5925 45.8458 38.9286L48.2436 42.7257C50.5197 46.3302 46.3302 50.5197 42.7257 48.2436L38.9286 45.8458C36.5925 44.3706 33.4999 45.6516 32.8912 48.3466L31.9017 52.727C30.9624 56.8853 25.0376 56.8853 24.0983 52.727L23.1088 48.3466C22.5001 45.6516 19.4075 44.3706 17.0714 45.8458L13.2743 48.2436C9.6698 50.5197 5.4803 46.3302 7.75644 42.7257L10.1542 38.9286C11.6294 36.5925 10.3484 33.4999 7.65345 32.8912L3.27297 31.9017C-0.885252 30.9624 -0.885253 25.0376 3.27297 24.0983L7.65345 23.1088C10.3484 22.5001 11.6294 19.4075 10.1542 17.0714L7.75644 13.2743C5.4803 9.6698 9.6698 5.4803 13.2743 7.75644L17.0714 10.1542C19.4075 11.6294 22.5001 10.3484 23.1088 7.65345L24.0983 3.27297Z" fill="#0C0A09"/>
</svg>
