<svg width="120" height="93" viewBox="0 0 120 93" fill="none" xmlns="http://www.w3.org/2000/svg">
<path d="M0 46.0186C0 46.0186 19.5139 43.5941 37.7102 28.8775C48.7857 19.92 59.9935 0.000455141 59.9935 0.000455141L59.9935 46.0186L0 46.0186Z" fill="#D9D9D9"/>
<path d="M0 46.0186C0 46.0186 19.5139 48.4568 37.7102 63.2574C48.7857 72.266 59.9935 92.2993 59.9935 92.2993L59.9935 46.0186L0 46.0186Z" fill="#D9D9D9"/>
<path d="M120 46.4297C120 46.4297 100.486 48.8541 82.2898 63.5707C71.2143 72.5282 60.0065 92.4478 60.0065 92.4478L60.0065 46.4297L120 46.4297Z" fill="#D9D9D9"/>
<path d="M120 46.6016C120 46.6016 100.486 44.1633 82.2898 29.3627C71.2143 20.3541 60.0065 0.320847 60.0065 0.320847L60.0065 46.6016L120 46.6016Z" fill="#D9D9D9"/>
</svg>
